<?xml version="1.0" encoding="utf-8"?>
<!-- Generator: Adobe Illustrator 18.1.1, SVG Export Plug-In . SVG Version: 6.00 Build 0)  -->
<svg version="1.1" xmlns="http://www.w3.org/2000/svg" xmlns:xlink="http://www.w3.org/1999/xlink" x="0px" y="0px"
	 viewBox="0 0 30 30" enable-background="new 0 0 30 30" xml:space="preserve">
<g id="Backgrounds">
	<g>
		<path fill="#3F6096" d="M15,4.52c-4,0-7.25,3.25-7.25,7.24c0,3.85,6.56,12.79,6.84,13.18l0.4,0.54l0.4-0.55
			c0.28-0.38,6.84-9.33,6.84-13.17C22.25,7.77,19,4.52,15,4.52z M15,23.78c-1.44-2.03-6.24-9.01-6.24-12.02
			c0-3.44,2.8-6.24,6.24-6.24c3.44,0,6.24,2.8,6.24,6.24C21.24,14.77,16.44,21.76,15,23.78z"/>
		<path fill="#3F6096" d="M15,8.33c-1.89,0-3.43,1.54-3.43,3.43c0,1.89,1.54,3.43,3.43,3.43c1.89,0,3.43-1.54,3.43-3.43
			C18.43,9.87,16.89,8.33,15,8.33z M15,14.19c-1.34,0-2.43-1.09-2.43-2.43S13.66,9.33,15,9.33c1.34,0,2.43,1.09,2.43,2.43
			C17.43,13.1,16.34,14.19,15,14.19z"/>
	</g>
</g>
<g id="Content">
</g>
<g id="Border">
</g>
<g id="Elements" display="none">
</g>
<g id="Column_Sizes">
</g>
<g id="Guides">
</g>
<g id="Developer_Guides" display="none">
	<g display="inline">
		<g>
			
				<line fill="none" stroke="#ED1C24" stroke-width="0.25" stroke-miterlimit="10" x1="11.64" y1="-1717.89" x2="11.64" y2="5514.11"/>
		</g>
	</g>
</g>
</svg>
