<?xml version="1.0" encoding="utf-8"?>
<!-- Generator: Adobe Illustrator 18.1.1, SVG Export Plug-In . SVG Version: 6.00 Build 0)  -->
<svg version="1.1" xmlns="http://www.w3.org/2000/svg" xmlns:xlink="http://www.w3.org/1999/xlink" x="0px" y="0px"
	 viewBox="0 0 30 30" enable-background="new 0 0 30 30" xml:space="preserve">
<g id="Backgrounds">
	<g>
		<g>
			<g>
				<g>
					<g>
						<g>
							<path fill="#36BFBE" d="M17.77,21.28c-0.84,0-3.06-0.44-5.59-4.56c-2.59-4.21-1.84-6.57-1.08-7.23l0.93-0.73
								c0.02-0.01,0.07-0.03,0.12-0.03c0.09,0,0.17,0.05,0.22,0.12l1.8,2.85c0.04,0.06,0.05,0.13,0.03,0.2
								c-0.01,0.05-0.04,0.11-0.11,0.16l-0.04,0.03l-1,0.53c-0.64,0.47-0.2,1.37,0.03,1.85l1.54,2.44c0.65,0.83,1.07,1.32,1.55,1.32
								c0.11,0,0.21-0.02,0.31-0.07l0.96-0.8c0.02-0.01,0.07-0.02,0.12-0.02c0.09,0,0.17,0.04,0.21,0.12l1.8,2.85
								c0.07,0.11,0.06,0.27-0.08,0.36l-1.05,0.5C18.36,21.19,18.15,21.28,17.77,21.28L17.77,21.28z"/>
						</g>
					</g>
				</g>
			</g>
			<g>
				<g>
					<path fill="#36BFBE" d="M15,25.43C9.25,25.43,4.57,20.75,4.57,15C4.57,9.25,9.25,4.57,15,4.57S25.43,9.25,25.43,15
						C25.43,20.75,20.75,25.43,15,25.43z M15,5.85c-5.05,0-9.15,4.11-9.15,9.15c0,5.05,4.11,9.15,9.15,9.15
						c5.05,0,9.15-4.1,9.15-9.15C24.15,9.95,20.05,5.85,15,5.85z"/>
				</g>
			</g>
		</g>
	</g>
</g>
<g id="Content">
</g>
<g id="Border">
</g>
<g id="Elements" display="none">
</g>
<g id="Column_Sizes">
</g>
<g id="Guides">
</g>
<g id="Developer_Guides" display="none">
	<g display="inline">
		<g>
			
				<line fill="none" stroke="#ED1C24" stroke-width="0.25" stroke-miterlimit="10" x1="11.64" y1="-1651.64" x2="11.64" y2="5580.36"/>
		</g>
	</g>
</g>
</svg>
